<?xml version="1.0" encoding="UTF-8"?>
<svg width="750px" height="118px" viewBox="0 0 750 118" version="1.1" xmlns="http://www.w3.org/2000/svg" xmlns:xlink="http://www.w3.org/1999/xlink">
    <!-- Generator: Sketch 49 (51002) - http://www.bohemiancoding.com/sketch -->
    <title>Rectangle 2 Copy 5 + Rectangle 2 Copy 7 + Rectangle 2 Copy 4 Mask</title>
    <desc>Created with Sketch.</desc>
    <defs>
        <linearGradient x1="0%" y1="0%" x2="100%" y2="100%" id="linearGradient-1">
            <stop stop-color="#FD5830" offset="0%"></stop>
            <stop stop-color="#FE4723" offset="100%"></stop>
        </linearGradient>
        <path d="M30,267 L721,267 C737.568542,267 751,280.431458 751,297 L751,377 L0,377 L0,297 C-2.02906125e-15,280.431458 13.4314575,267 30,267 Z" id="path-2"></path>
        <filter x="-0.9%" y="-4.5%" width="101.9%" height="112.7%" filterUnits="objectBoundingBox" id="filter-3">
            <feOffset dx="0" dy="2" in="SourceAlpha" result="shadowOffsetOuter1"></feOffset>
            <feGaussianBlur stdDeviation="2" in="shadowOffsetOuter1" result="shadowBlurOuter1"></feGaussianBlur>
            <feColorMatrix values="0 0 0 0 0.98785608   0 0 0 0 0.141285107   0 0 0 0 0.130361611  0 0 0 0.206182065 0" type="matrix" in="shadowBlurOuter1"></feColorMatrix>
        </filter>
    </defs>
    <g id="Page-1" stroke="none" stroke-width="1" fill="none" fill-rule="evenodd">
        <g id="团购详情" transform="translate(0.000000, -616.000000)">
            <g id="Group-3-Copy" transform="translate(0.000000, 351.000000)">
                <g id="Rectangle-2-Copy-5-+-Rectangle-2-Copy-7-+-Rectangle-2-Copy-4-Mask">
                    <path d="M40,267 L710,267 C732.09139,267 750,284.90861 750,307 L750,377 L0,377 L0,307 C-2.705415e-15,284.90861 17.90861,267 40,267 Z" id="Mask"></path>
                    <g id="Mask-Copy">
                        <use fill="black" fill-opacity="1" filter="url(#filter-3)" xlink:href="#path-2"></use>
                        <use fill="url(#linearGradient-1)" fill-rule="evenodd" xlink:href="#path-2"></use>
                    </g>
                    <path d="M727.192656,13.8652692 L727.192656,13.8652692 C744.780406,31.4530196 744.780406,59.968397 727.192656,77.5561473 L497.191514,307.557289 C479.603764,325.145039 451.088386,325.145039 433.500636,307.557289 L433.500636,307.557289 C415.912886,289.969539 415.912886,261.454161 433.500636,243.866411 L663.501778,13.8652692 C681.089528,-3.72248109 709.604905,-3.72248109 727.192656,13.8652692 Z" id="Rectangle-2-Copy-6"></path>
                    <path d="M543.124321,126.868865 L543.124321,126.868865 C555.497988,139.242532 555.497988,159.30421 543.124321,171.677878 L380.599957,334.202241 C368.22629,346.575909 348.164612,346.575909 335.790944,334.202241 L335.790944,334.202241 C323.417277,321.828574 323.417277,301.766896 335.790944,289.393228 L498.315308,126.868865 C510.688975,114.495197 530.750654,114.495197 543.124321,126.868865 Z" id="Rectangle-2-Copy-8"></path>
                    <path d="M869.53552,161.979219 L921.245654,213.689353 C924.369848,216.813547 924.369848,221.878867 921.245654,225.003061 L641.938475,504.31024 C638.814281,507.434434 633.748961,507.434434 630.624767,504.31024 L578.914633,452.600106 C575.790438,449.475912 575.790438,444.410592 578.914633,441.286398 L858.221811,161.979219 C861.346006,158.855025 866.411325,158.855025 869.53552,161.979219 Z" id="Rectangle-2-Copy-5"></path>
                    <path d="M1025.19266,29.8652692 L1025.19266,29.8652692 C1042.78041,47.4530196 1042.78041,75.968397 1025.19266,93.5561473 L795.191514,323.557289 C777.603764,341.145039 749.088386,341.145039 731.500636,323.557289 L731.500636,323.557289 C713.912886,305.969539 713.912886,277.454161 731.500636,259.866411 L961.501778,29.8652692 C979.089528,12.2775189 1007.60491,12.2775189 1025.19266,29.8652692 Z" id="Rectangle-2-Copy-6"></path>
                    <path d="M389.390587,31.834286 L389.390587,31.834286 C406.79414,49.2378395 406.79414,77.4545749 389.390587,94.8581284 L161.793542,322.455173 C144.389989,339.858727 116.173253,339.858727 98.7696996,322.455173 L98.7696996,322.455173 C81.3661461,305.05162 81.3661461,276.834884 98.7696996,259.431331 L326.366744,31.834286 C343.770298,14.4307324 371.987033,14.4307324 389.390587,31.834286 Z" id="Rectangle-2-Copy-7"></path>
                    <path d="M860.746735,210.158565 L887.613432,237.025262 C890.737626,240.149456 890.737626,245.214776 887.613432,248.33897 L722.262273,413.69013 C719.138078,416.814324 714.072759,416.814324 710.948564,413.69013 L684.081867,386.823433 C680.957673,383.699238 680.957673,378.633918 684.081867,375.509724 L849.433026,210.158565 C852.557221,207.034371 857.62254,207.034371 860.746735,210.158565 Z" id="Rectangle-2-Copy-4"></path>
                    <path d="M149.715432,283.115302 L149.715432,283.115302 C153.90384,287.30371 153.90384,294.09446 149.715432,298.282868 L94.7010285,353.297272 C90.5126208,357.48568 83.7218701,357.48568 79.5334623,353.297272 L79.5334623,353.297272 C75.3450545,349.108864 75.3450545,342.318113 79.5334623,338.129706 L134.547866,283.115302 C138.736274,278.926894 145.527025,278.926894 149.715432,283.115302 Z" id="Rectangle-2-Copy-9"></path>
                </g>
            </g>
        </g>
    </g>
</svg>