<?xml version="1.0" encoding="UTF-8"?>
<svg width="20px" height="22px" viewBox="0 0 20 22" version="1.1" xmlns="http://www.w3.org/2000/svg" xmlns:xlink="http://www.w3.org/1999/xlink">
    <!-- Generator: Sketch 49 (51002) - http://www.bohemiancoding.com/sketch -->
    <title>删除</title>
    <desc>Created with Sketch.</desc>
    <defs></defs>
    <g id="Page-1" stroke="none" stroke-width="1" fill="none" fill-rule="evenodd">
        <g id="搜索" transform="translate(-546.000000, -274.000000)" fill="#999999" fill-rule="nonzero" stroke="#999999" stroke-width="0.5">
            <g id="删除" transform="translate(549.000000, 275.000000)">
                <path d="M14.6970508,19.9997852 L5.30447266,19.9997852 C3.67751953,19.9997852 2.35330078,18.7536914 2.35330078,17.2204883 L2.35330078,4.11697266 C2.35330078,3.79275391 2.61501953,3.52908203 2.94119141,3.52908203 C3.26541016,3.52908203 3.52908203,3.79080078 3.52908203,4.11697266 L3.52908203,17.2204883 C3.52908203,18.1033008 4.32595703,18.8240039 5.30251953,18.8240039 L14.6931445,18.8240039 C15.6716602,18.8240039 16.466582,18.1052539 16.466582,17.2204883 L16.466582,11.0075977 C16.466582,10.6833789 16.7283008,10.419707 17.0544727,10.419707 C17.3786914,10.419707 17.6423633,10.6814258 17.6423633,11.0075977 L17.6423633,17.2204883 C17.6482227,18.7536914 16.325957,19.9997852 14.6970508,19.9997852 Z M17.0583789,6.42751953 C16.7341602,6.42751953 16.4704883,6.16580078 16.4704883,5.83962891 L16.4704883,4.11697266 C16.4704883,3.79275391 16.732207,3.52908203 17.0583789,3.52908203 C17.3825977,3.52908203 17.6462695,3.79080078 17.6462695,4.11697266 L17.6462695,5.83962891 C17.6482227,6.16580078 17.3865039,6.42751953 17.0583789,6.42751953 Z M18.825957,4.11697266 L1.17751953,4.11697266 C0.853300781,4.11697266 0.589628906,3.85525391 0.589628906,3.52908203 C0.589628906,3.20291016 0.851347656,2.94119141 1.17751953,2.94119141 L18.8240039,2.94119141 C19.1482227,2.94119141 19.4118945,3.20291016 19.4118945,3.52908203 C19.4118945,3.85525391 19.1501758,4.11697266 18.825957,4.11697266 Z M10.0017383,4.11697266 C9.35330078,4.11697266 8.82595703,3.58962891 8.82595703,2.94119141 L8.82595703,1.17751953 C8.82595703,0.529082031 9.35330078,0.00173828125 10.0017383,0.00173828125 C10.6501758,0.00173828125 11.1775195,0.527128906 11.1775195,1.17556641 L11.1775195,2.93923828 C11.1775195,3.58962891 10.6501758,4.11697266 10.0017383,4.11697266 Z M7.06033203,17.0564258 C6.73611328,17.0564258 6.47244141,16.794707 6.47244141,16.4685352 L6.47244141,5.88064453 C6.47244141,5.55642578 6.73416016,5.29275391 7.06033203,5.29275391 C7.38455078,5.29275391 7.64822266,5.55447266 7.64822266,5.88064453 L7.64822266,16.4685352 C7.64822266,16.794707 7.38455078,17.0564258 7.06033203,17.0564258 Z M12.9411914,17.0564258 C12.6169727,17.0564258 12.3533008,16.794707 12.3533008,16.4685352 L12.3533008,5.88064453 C12.3533008,5.55642578 12.6150195,5.29275391 12.9411914,5.29275391 C13.2654102,5.29275391 13.529082,5.55447266 13.529082,5.88064453 L13.529082,16.4685352 C13.5310352,16.794707 13.2673633,17.0564258 12.9411914,17.0564258 Z" id="Shape"></path>
            </g>
        </g>
    </g>
</svg>