<?xml version="1.0" encoding="UTF-8"?>
<svg width="86px" height="86px" viewBox="0 0 86 86" version="1.1" xmlns="http://www.w3.org/2000/svg" xmlns:xlink="http://www.w3.org/1999/xlink">
    <!-- Generator: Sketch 49 (51002) - http://www.bohemiancoding.com/sketch -->
    <title>工具 copy</title>
    <desc>Created with Sketch.</desc>
    <defs>
        <rect id="path-1" x="0" y="0" width="750" height="208" rx="12"></rect>
        <filter x="-3.3%" y="-27.6%" width="106.7%" height="157.1%" filterUnits="objectBoundingBox" id="filter-2">
            <feOffset dx="0" dy="0" in="SourceAlpha" result="shadowOffsetOuter1"></feOffset>
            <feGaussianBlur stdDeviation="8" in="shadowOffsetOuter1" result="shadowBlurOuter1"></feGaussianBlur>
            <feColorMatrix values="0 0 0 0 0   0 0 0 0 0   0 0 0 0 0  0 0 0 0.120612545 0" type="matrix" in="shadowBlurOuter1" result="shadowMatrixOuter1"></feColorMatrix>
            <feMerge>
                <feMergeNode in="shadowMatrixOuter1"></feMergeNode>
                <feMergeNode in="SourceGraphic"></feMergeNode>
            </feMerge>
        </filter>
        <rect id="path-3" x="0" y="0" width="130" height="98"></rect>
        <path d="M28,19.5 L22,19.5 C20.894,19.5 20,18.606 20,17.5 C20,16.394 20.894,15.5 22,15.5 L28,15.5 C29.106,15.5 30,16.394 30,17.5 C30,18.606 29.106,19.5 28,19.5" id="path-4"></path>
        <path d="M37.625,10 L9.625,10 C8.519,10 7.625,9.106 7.625,8 C7.625,6.894 8.519,6 9.625,6 L37.625,6 C38.731,6 39.625,6.894 39.625,8 C39.625,9.106 38.731,10 37.625,10" id="path-5"></path>
        <path d="M35.205,32 L14.449,32 C9.531,32 5.531,27.962 5.531,23 L5.531,6.5 C5.531,5.416 4.861,4.5 4.071,4.5 L2.125,4.5 C1.019,4.5 0.125,3.606 0.125,2.5 C0.125,1.394 1.019,0.5 2.125,0.5 L4.071,0.5 C7.081,0.5 9.531,3.192 9.531,6.5 L9.531,23 C9.531,25.758 11.739,28 14.449,28 L35.205,28 C37.917,28 40.125,25.758 40.125,23 L40.125,14.562 C40.125,13.458 41.019,12.562 42.125,12.562 C43.231,12.562 44.125,13.458 44.125,14.562 L44.125,23 C44.125,27.962 40.123,32 35.205,32" id="path-6"></path>
        <path d="M14,37 C12.622,37 11.5,38.122 11.5,39.5 C11.5,40.878 12.622,42 14,42 C15.378,42 16.5,40.878 16.5,39.5 C16.5,38.122 15.378,37 14,37 M14,45 C10.966,45 8.5,42.534 8.5,39.5 C8.5,36.466 10.966,34 14,34 C17.034,34 19.5,36.466 19.5,39.5 C19.5,42.534 17.034,45 14,45" id="path-7"></path>
        <filter x="-36.4%" y="-18.2%" width="172.7%" height="172.7%" filterUnits="objectBoundingBox" id="filter-8">
            <feOffset dx="0" dy="2" in="SourceAlpha" result="shadowOffsetOuter1"></feOffset>
            <feGaussianBlur stdDeviation="1" in="shadowOffsetOuter1" result="shadowBlurOuter1"></feGaussianBlur>
            <feColorMatrix values="0 0 0 0 0   0 0 0 0 0   0 0 0 0 0  0 0 0 0.0887681159 0" type="matrix" in="shadowBlurOuter1"></feColorMatrix>
        </filter>
        <path d="M36,37 C34.622,37 33.5,38.122 33.5,39.5 C33.5,40.878 34.622,42 36,42 C37.378,42 38.5,40.878 38.5,39.5 C38.5,38.122 37.378,37 36,37 M36,45 C32.966,45 30.5,42.534 30.5,39.5 C30.5,36.466 32.966,34 36,34 C39.034,34 41.5,36.466 41.5,39.5 C41.5,42.534 39.034,45 36,45" id="path-9"></path>
        <filter x="-36.4%" y="-18.2%" width="172.7%" height="172.7%" filterUnits="objectBoundingBox" id="filter-10">
            <feOffset dx="0" dy="2" in="SourceAlpha" result="shadowOffsetOuter1"></feOffset>
            <feGaussianBlur stdDeviation="1" in="shadowOffsetOuter1" result="shadowBlurOuter1"></feGaussianBlur>
            <feColorMatrix values="0 0 0 0 0   0 0 0 0 0   0 0 0 0 0  0 0 0 0.0887681159 0" type="matrix" in="shadowBlurOuter1"></feColorMatrix>
        </filter>
        <linearGradient x1="0%" y1="0%" x2="100%" y2="100%" id="linearGradient-11">
            <stop stop-color="#FD5830" offset="0%"></stop>
            <stop stop-color="#FE4723" offset="100%"></stop>
        </linearGradient>
        <rect id="path-12" x="0" y="0" width="38" height="30" rx="15"></rect>
        <filter x="-18.4%" y="-16.7%" width="136.8%" height="146.7%" filterUnits="objectBoundingBox" id="filter-13">
            <feOffset dx="0" dy="2" in="SourceAlpha" result="shadowOffsetOuter1"></feOffset>
            <feGaussianBlur stdDeviation="2" in="shadowOffsetOuter1" result="shadowBlurOuter1"></feGaussianBlur>
            <feColorMatrix values="0 0 0 0 0.98785608   0 0 0 0 0.141285107   0 0 0 0 0.130361611  0 0 0 0.206182065 0" type="matrix" in="shadowBlurOuter1"></feColorMatrix>
        </filter>
    </defs>
    <g id="Page-1" stroke="none" stroke-width="1" fill="none" fill-rule="evenodd">
        <g id="团购详情" transform="translate(-153.000000, -2893.000000)">
            <g id="Group-15-Copy-2" transform="translate(0.000000, 2775.000000)">
                <g id="Rectangle-2"></g>
                <g id="Mask">
                    <use fill="#FFFFFF" fill-rule="evenodd" xlink:href="#path-1"></use>
                    <rect stroke="#EDEDED" stroke-width="0.5" x="-0.25" y="-0.25" width="750.5" height="208.5" rx="12"></rect>
                </g>
            </g>
            <g id="发起团购" filter="url(#filter-2)" transform="translate(0.000000, 2894.000000)">
                <g id="Group-5">
                    <g id="工具-copy" transform="translate(130.000000, 0.000000)">
                        <g id="b-g11-copy">
                            <use fill="#FFFFFF" fill-rule="evenodd" xlink:href="#path-3"></use>
                            <rect stroke="#EDEDED" stroke-width="0.5" x="-0.25" y="-0.25" width="130.5" height="98.5"></rect>
                        </g>
                        <text id="购物车" font-family="PingFangSC-Regular, PingFang SC" font-size="22" font-weight="normal" line-spacing="22" fill="#999999">
                            <tspan x="33" y="93">购物车</tspan>
                        </text>
                        <g id="Group-13" transform="translate(42.000000, 16.000000)">
                            <g id="Group-12" transform="translate(1.000000, 3.500000)">
                                <g id="Fill-2">
                                    <use fill="#D8D8D8" xlink:href="#path-4"></use>
                                    <use fill="#767676" xlink:href="#path-4"></use>
                                </g>
                                <g id="Fill-4">
                                    <use fill="#D8D8D8" xlink:href="#path-5"></use>
                                    <use fill="#767676" xlink:href="#path-5"></use>
                                </g>
                                <g id="Fill-6">
                                    <use fill="#D8D8D8" xlink:href="#path-6"></use>
                                    <use fill="#767676" xlink:href="#path-6"></use>
                                </g>
                                <g id="Fill-8" opacity="0.5">
                                    <use fill="black" fill-opacity="1" filter="url(#filter-8)" xlink:href="#path-7"></use>
                                    <use fill="#000000" fill-rule="evenodd" xlink:href="#path-7"></use>
                                </g>
                                <g id="Fill-10" opacity="0.5">
                                    <use fill="black" fill-opacity="1" filter="url(#filter-10)" xlink:href="#path-9"></use>
                                    <use fill="#000000" fill-rule="evenodd" xlink:href="#path-9"></use>
                                </g>
                            </g>
                        </g>
                    </g>
                    <g id="Group-4" transform="translate(201.000000, 10.000000)">
                        <g id="Rectangle-17">
                            <use fill="black" fill-opacity="1" filter="url(#filter-13)" xlink:href="#path-12"></use>
                            <use fill="url(#linearGradient-11)" fill-rule="evenodd" xlink:href="#path-12"></use>
                        </g>
                        <text id="3" font-family="PingFangSC-Semibold, PingFang SC" font-size="20" font-weight="500" line-spacing="20" fill="#FFFFFF">
                            <tspan x="11.56" y="21.96">3</tspan>
                        </text>
                    </g>
                </g>
            </g>
        </g>
    </g>
</svg>