<?xml version="1.0" encoding="UTF-8"?>
<svg width="52px" height="52px" viewBox="0 0 52 52" version="1.1" xmlns="http://www.w3.org/2000/svg" xmlns:xlink="http://www.w3.org/1999/xlink">
    <!-- Generator: Sketch 49 (51002) - http://www.bohemiancoding.com/sketch -->
    <title>报单</title>
    <desc>Created with Sketch.</desc>
    <defs>
        <rect id="path-1" x="0" y="0" width="750" height="98"></rect>
        <filter x="0.0%" y="0.0%" width="100.0%" height="100.0%" filterUnits="objectBoundingBox" id="filter-2">
            <feMorphology radius="3" operator="erode" in="SourceAlpha" result="shadowSpreadOuter1"></feMorphology>
            <feOffset dx="0" dy="2" in="shadowSpreadOuter1" result="shadowOffsetOuter1"></feOffset>
            <feGaussianBlur stdDeviation="1" in="shadowOffsetOuter1" result="shadowBlurOuter1"></feGaussianBlur>
            <feComposite in="shadowBlurOuter1" in2="SourceAlpha" operator="out" result="shadowBlurOuter1"></feComposite>
            <feColorMatrix values="0 0 0 0 0   0 0 0 0 0   0 0 0 0 0  0 0 0 0.03 0" type="matrix" in="shadowBlurOuter1"></feColorMatrix>
        </filter>
        <path d="M15,40.5 C13.622,40.5 12.5,41.622 12.5,43 C12.5,44.378 13.622,45.5 15,45.5 C16.378,45.5 17.5,44.378 17.5,43 C17.5,41.622 16.378,40.5 15,40.5 M15,48.5 C11.966,48.5 9.5,46.034 9.5,43 C9.5,39.966 11.966,37.5 15,37.5 C18.034,37.5 20.5,39.966 20.5,43 C20.5,46.034 18.034,48.5 15,48.5" id="path-3"></path>
        <filter x="-18.2%" y="-9.1%" width="136.4%" height="136.4%" filterUnits="objectBoundingBox" id="filter-4">
            <feOffset dx="0" dy="1" in="SourceAlpha" result="shadowOffsetOuter1"></feOffset>
            <feGaussianBlur stdDeviation="0.5" in="shadowOffsetOuter1" result="shadowBlurOuter1"></feGaussianBlur>
            <feColorMatrix values="0 0 0 0 0.520195578   0 0 0 0 0.520195578   0 0 0 0 0.520195578  0 0 0 0.202219203 0" type="matrix" in="shadowBlurOuter1"></feColorMatrix>
        </filter>
        <path d="M37,40.5 C35.622,40.5 34.5,41.622 34.5,43 C34.5,44.378 35.622,45.5 37,45.5 C38.378,45.5 39.5,44.378 39.5,43 C39.5,41.622 38.378,40.5 37,40.5 M37,48.5 C33.966,48.5 31.5,46.034 31.5,43 C31.5,39.966 33.966,37.5 37,37.5 C40.034,37.5 42.5,39.966 42.5,43 C42.5,46.034 40.034,48.5 37,48.5" id="path-5"></path>
        <filter x="-18.2%" y="-9.1%" width="136.4%" height="136.4%" filterUnits="objectBoundingBox" id="filter-6">
            <feOffset dx="0" dy="1" in="SourceAlpha" result="shadowOffsetOuter1"></feOffset>
            <feGaussianBlur stdDeviation="0.5" in="shadowOffsetOuter1" result="shadowBlurOuter1"></feGaussianBlur>
            <feColorMatrix values="0 0 0 0 0.520195578   0 0 0 0 0.520195578   0 0 0 0 0.520195578  0 0 0 0.202219203 0" type="matrix" in="shadowBlurOuter1"></feColorMatrix>
        </filter>
    </defs>
    <g id="Page-1" stroke="none" stroke-width="1" fill="none" fill-rule="evenodd">
        <g id="我的" transform="translate(-446.000000, -1203.000000)">
            <g id="tab" transform="translate(0.000000, 1189.000000)">
                <g id="Bar">
                    <use fill="black" fill-opacity="1" filter="url(#filter-2)" xlink:href="#path-1"></use>
                    <use fill="#FFFFFF" fill-rule="evenodd" xlink:href="#path-1"></use>
                    <rect stroke="#EBEBEB" stroke-width="1" x="0.5" y="0.5" width="749" height="97"></rect>
                </g>
                <g id="Group-4" transform="translate(439.000000, 14.000000)">
                    <g id="Group-3" transform="translate(0.000000, 0.000000)">
                        <g id="工具-copy-3" transform="translate(0.000000, 0.000000)">
                            <g id="Group-13" transform="translate(9.000000, 2.000000)">
                                <path d="M23,23 C21.894,23 21,22.106 21,21 C21,19.894 21.894,19 23,19 L29,19 C30.106,19 31,19.894 31,21 C31,22.106 30.106,23 29,23 L23,23 Z" id="Fill-2" fill="#666666"></path>
                                <path d="M10.625,13.5 C9.519,13.5 8.625,12.606 8.625,11.5 C8.625,10.394 9.519,9.5 10.625,9.5 L38.625,9.5 C39.731,9.5 40.625,10.394 40.625,11.5 C40.625,12.606 39.731,13.5 38.625,13.5 L10.625,13.5 Z" id="Fill-4" fill="#666666"></path>
                                <path d="M36.205,35.5 L15.449,35.5 C10.531,35.5 6.531,31.462 6.531,26.5 L6.531,10 C6.531,8.916 5.861,8 5.071,8 L3.125,8 C2.019,8 1.125,7.106 1.125,6 C1.125,4.894 2.019,4 3.125,4 L5.071,4 C8.081,4 10.531,6.692 10.531,10 L10.531,26.5 C10.531,29.258 12.739,31.5 15.449,31.5 L36.205,31.5 C38.917,31.5 41.125,29.258 41.125,26.5 L41.125,18.062 C41.125,16.958 42.019,16.062 43.125,16.062 C44.231,16.062 45.125,16.958 45.125,18.062 L45.125,26.5 C45.125,31.462 41.123,35.5 36.205,35.5" id="Fill-6" fill="#666666"></path>
                                <g id="Fill-8">
                                    <use fill="black" fill-opacity="1" filter="url(#filter-4)" xlink:href="#path-3"></use>
                                    <use fill="#666666" fill-rule="evenodd" xlink:href="#path-3"></use>
                                </g>
                                <g id="Fill-10">
                                    <use fill="black" fill-opacity="1" filter="url(#filter-6)" xlink:href="#path-5"></use>
                                    <use fill="#666666" fill-rule="evenodd" xlink:href="#path-5"></use>
                                </g>
                            </g>
                        </g>
                    </g>
                </g>
            </g>
        </g>
    </g>
</svg>